<?xml version="1.0" standalone="no"?>
<!DOCTYPE svg PUBLIC "-//W3C//DTD SVG 20010904//EN"
 "http://www.w3.org/TR/2001/REC-SVG-20010904/DTD/svg10.dtd">
<svg version="1.0" xmlns="http://www.w3.org/2000/svg"
 width="829.000000pt" height="1280.000000pt" viewBox="0 0 829.000000 1280.000000"
 preserveAspectRatio="xMidYMid meet">
<g transform="translate(0.000000,1280.000000) scale(0.100000,-0.100000)"
fill="#000000" stroke="none">
<path d="M3934 12790 c-455 -26 -924 -104 -1207 -199 -408 -138 -859 -401
-1212 -706 -251 -217 -690 -705 -856 -951 -256 -380 -500 -1163 -603 -1938
-42 -310 -50 -432 -51 -711 0 -362 25 -528 105 -706 23 -52 46 -123 54 -171
20 -111 31 -142 121 -358 108 -259 194 -413 408 -733 160 -240 318 -448 539
-712 229 -274 343 -420 508 -651 469 -657 793 -1291 870 -1705 12 -63 30 -143
40 -179 38 -129 42 -232 44 -985 2 -632 4 -747 19 -855 37 -266 91 -453 180
-624 l52 -99 130 -87 c178 -118 240 -155 306 -180 32 -11 85 -39 118 -60 139
-90 237 -124 404 -140 61 -7 130 -16 152 -22 22 -6 59 -12 82 -15 81 -10 399
50 531 99 28 11 76 40 105 65 28 24 159 117 291 205 258 174 324 231 373 323
74 142 92 263 133 910 22 354 43 531 72 619 18 54 21 100 28 386 10 370 26
505 90 754 47 186 95 321 195 552 43 98 86 203 96 233 67 193 651 1021 1124
1591 389 470 716 1052 898 1600 90 270 149 526 188 825 18 139 23 220 23 450
1 360 -6 425 -105 945 -55 287 -97 434 -186 644 -121 287 -241 516 -397 755
-48 73 -116 185 -153 250 -87 153 -155 242 -288 376 -499 503 -1381 1014
-1965 1139 -309 66 -799 92 -1256 66z m676 -150 c435 -27 572 -57 990 -219
379 -147 451 -183 626 -313 54 -39 139 -96 188 -126 50 -30 123 -79 161 -110
281 -225 673 -665 919 -1032 128 -191 391 -741 465 -975 35 -107 76 -330 87
-466 5 -59 18 -117 45 -193 61 -172 73 -251 73 -476 -1 -208 -16 -359 -60
-580 -134 -677 -433 -1397 -801 -1935 -94 -136 -155 -213 -285 -357 -152 -170
-203 -236 -334 -433 -67 -99 -176 -259 -244 -355 -314 -445 -454 -668 -593
-945 -141 -283 -207 -462 -291 -796 -24 -97 -51 -188 -61 -202 -23 -36 -59
-44 -215 -51 -74 -3 -182 -10 -240 -16 -433 -39 -2006 27 -2209 93 -35 12 -36
14 -43 74 -16 145 -105 386 -262 708 -302 620 -695 1232 -1080 1684 -457 536
-698 887 -917 1336 -146 300 -237 561 -289 834 -40 203 -100 708 -100 832 0
546 401 1781 753 2317 120 184 434 530 703 777 309 283 658 521 905 618 142
55 625 194 789 227 205 40 408 64 715 83 122 8 454 6 605 -3z m185 -9740 c433
-13 625 -31 625 -60 0 -20 -132 -47 -435 -90 -176 -25 -750 -120 -1150 -190
-558 -98 -811 -140 -852 -140 -55 0 -92 32 -129 112 -25 55 -28 75 -29 158 0
77 5 107 24 158 l24 62 796 0 c438 0 945 -5 1126 -10z m661 -275 c36 -24 47
-59 48 -160 0 -73 -3 -97 -21 -130 -46 -88 -109 -119 -273 -134 -146 -15 -285
-37 -690 -111 -429 -78 -742 -131 -1035 -175 -132 -20 -278 -42 -325 -50 -118
-21 -183 -19 -230 5 -57 29 -84 73 -88 145 -4 72 15 108 80 156 156 115 622
232 1243 314 433 57 570 76 820 114 143 22 276 42 295 44 62 8 150 -1 176 -18z
m-89 -622 c37 -27 55 -91 51 -184 -4 -100 -16 -114 -105 -123 -71 -7 -569 -97
-1503 -270 -808 -150 -865 -156 -910 -99 -27 35 -28 138 -1 191 41 80 141 149
286 199 106 36 165 48 465 93 151 22 437 68 635 100 615 100 775 120 943 116
95 -2 117 -5 139 -23z m-47 -488 c39 -20 71 -85 77 -156 5 -50 2 -67 -22 -114
-32 -67 -88 -112 -148 -119 -180 -23 -311 -45 -572 -96 -379 -74 -499 -92
-605 -92 -75 0 -94 -4 -160 -33 -133 -59 -277 -91 -589 -130 -224 -27 -352
-32 -391 -12 -31 15 -60 71 -60 115 0 96 87 182 258 253 178 74 370 118 860
199 202 34 493 83 648 111 535 94 643 106 704 74z m-12 -557 c36 -31 -24 -192
-103 -277 -53 -57 -76 -66 -195 -81 -313 -38 -1469 -41 -1750 -5 -48 7 -79 20
-69 30 11 11 153 36 423 76 315 45 492 77 701 124 558 126 940 177 993 133z
m-1570 -533 c56 -23 89 -64 98 -121 8 -59 -7 -94 -41 -94 -32 0 -239 89 -316
136 -83 50 -93 75 -39 97 33 14 254 0 298 -18z m1052 -7 c23 -42 0 -75 -67
-97 -37 -13 -71 -35 -113 -75 -33 -32 -66 -56 -73 -54 -33 11 -6 104 53 178
62 78 169 103 200 48z"/>
<path d="M1987 11291 c-198 -101 -547 -553 -770 -996 -84 -168 -120 -259 -162
-414 -19 -69 -50 -173 -70 -231 -69 -206 -102 -577 -92 -1060 6 -296 17 -449
43 -609 19 -114 36 -164 69 -203 14 -16 27 -42 30 -56 37 -200 153 -426 432
-852 194 -294 442 -636 695 -955 285 -362 325 -429 594 -995 64 -135 132 -288
151 -340 71 -195 175 -602 222 -870 18 -101 51 -388 51 -443 0 -19 4 -20 83
-13 201 15 235 54 223 251 -7 122 -45 310 -136 682 -81 331 -111 403 -166 403
-44 0 -54 -56 -33 -175 6 -34 9 -75 7 -91 l-3 -29 -22 42 c-12 22 -46 106 -74
185 -75 210 -155 392 -294 673 -182 367 -263 507 -436 746 -71 98 -104 166
-89 184 30 36 144 -54 156 -122 7 -42 49 -123 64 -123 20 0 106 -138 182 -292
90 -182 126 -239 139 -216 19 33 -53 275 -151 508 -58 140 -72 189 -68 243 3
39 1 41 -29 48 -18 3 -44 14 -58 23 -36 23 -77 90 -73 118 3 20 8 23 50 22 32
0 54 -7 69 -20 42 -37 114 -161 269 -464 172 -334 218 -416 261 -464 l28 -31
1 29 c0 35 -46 175 -101 304 -121 283 -408 853 -512 1015 -57 90 -80 147 -71
182 5 22 1 27 -37 44 -24 10 -111 31 -192 45 -82 15 -192 40 -245 57 -126 40
-411 153 -483 191 l-56 29 -108 272 c-199 501 -198 516 35 386 110 -62 196
-94 294 -109 88 -13 168 -6 160 14 -3 7 -28 26 -57 43 -29 16 -137 81 -240
142 -204 122 -275 157 -337 167 -47 8 -56 28 -70 161 -13 117 -13 395 0 428
12 33 45 45 90 33 19 -6 109 -45 200 -88 247 -117 344 -137 397 -84 25 26 26
26 19 140 l-7 114 25 10 c51 19 85 -9 101 -83 7 -32 78 -107 101 -107 15 0 16
9 8 78 -41 356 69 834 310 1348 68 146 77 178 50 188 -41 16 -144 -167 -257
-454 -127 -322 -201 -577 -217 -744 -6 -54 -15 -105 -21 -112 -17 -21 -37 -17
-56 12 -13 21 -17 50 -18 133 l0 106 -68 -3 c-55 -3 -74 1 -101 18 -49 29 -69
78 -61 144 9 66 -4 93 -77 161 -64 60 -98 126 -98 193 0 58 17 85 54 85 39 0
55 -21 66 -85 5 -31 18 -75 30 -98 47 -93 178 -190 255 -190 76 0 56 42 -107
220 -171 189 -207 246 -208 326 0 73 25 133 183 436 81 156 101 208 78 208 -6
0 -38 -24 -73 -53 -160 -136 -193 -98 -79 91 84 140 150 221 324 399 168 172
189 204 142 211 -11 1 -37 -6 -58 -17z m-542 -921 c17 -19 18 -26 7 -66 -14
-51 -63 -128 -87 -138 -42 -16 -48 -9 -42 52 5 62 25 112 60 150 25 27 39 28
62 2z m-168 -350 c17 -34 16 -143 -2 -187 -14 -34 -16 -35 -37 -21 -37 24 -49
58 -45 119 8 102 53 150 84 89z m-97 -302 c32 -52 24 -148 -12 -148 -18 0 -38
63 -38 120 0 70 18 80 50 28z m240 -213 c34 -18 70 -61 70 -85 0 -31 -39 -70
-70 -70 -37 0 -95 56 -105 100 -13 59 41 88 105 55z m-276 -77 c22 -36 29 -85
16 -122 -13 -41 -36 -52 -61 -30 -37 33 -44 116 -14 164 11 18 44 11 59 -12z
m251 -192 c23 -34 29 -85 16 -133 -14 -49 -36 -61 -71 -35 -36 27 -51 61 -46
105 9 80 67 116 101 63z m279 -66 c36 -13 41 -47 16 -113 -23 -60 -50 -87 -88
-87 -52 0 -104 98 -82 154 17 45 96 68 154 46z m-541 -88 c14 -24 16 -35 7
-51 -14 -28 -54 -27 -80 1 -24 26 -26 56 -4 86 14 21 18 22 37 9 12 -8 30 -28
40 -45z m516 -226 c47 -50 45 -136 -3 -136 -55 0 -106 50 -106 105 0 57 67 76
109 31z m24 -1883 c20 -16 46 -40 57 -56 19 -24 20 -28 5 -33 -50 -19 -145 34
-145 81 0 44 31 47 83 8z m433 -109 c32 -15 64 -48 64 -66 0 -17 -35 -38 -65
-38 -45 0 -95 42 -95 80 0 42 38 52 96 24z m-223 -165 c39 -20 67 -52 67 -76
0 -31 -21 -38 -58 -19 -29 15 -92 82 -92 98 0 12 58 10 83 -3z m418 -120 c61
-44 99 -80 99 -96 0 -18 -54 -17 -89 1 -28 15 -101 90 -101 104 0 32 39 28 91
-9z m-214 -140 c52 -25 145 -134 141 -164 -8 -56 -140 -1 -236 99 -34 35 -62
69 -62 75 0 20 110 13 157 -10z"/>
<path d="M7190 9718 c0 -24 5 -62 10 -85 39 -169 100 -868 100 -1142 0 -407
-209 -1085 -531 -1721 -113 -223 -201 -375 -369 -630 -217 -330 -245 -387
-205 -420 12 -10 20 -9 40 4 27 18 33 26 152 206 42 63 130 191 195 283 180
254 316 464 414 642 80 143 98 169 180 250 52 51 107 117 127 151 251 436 296
1370 101 2078 -67 242 -147 415 -197 424 -14 3 -17 -4 -17 -40z"/>
<path d="M1920 8286 c0 -119 122 -547 210 -731 88 -188 311 -487 352 -473 33
12 -4 101 -117 278 -130 205 -243 452 -345 750 -47 137 -75 200 -90 200 -6 0
-10 -11 -10 -24z"/>
<path d="M2982 7418 c-40 -40 14 -181 134 -349 82 -114 126 -189 183 -311 138
-296 248 -659 360 -1194 59 -280 111 -475 142 -536 l22 -43 8 30 c10 35 -2
157 -42 445 -111 786 -297 1447 -486 1726 -52 76 -169 187 -233 219 -55 28
-71 30 -88 13z"/>
<path d="M3704 4263 c-11 -56 3 -944 14 -955 5 -5 25 -11 43 -11 53 -3 62 28
67 221 5 175 -9 362 -38 537 -21 122 -56 245 -70 245 -5 0 -12 -17 -16 -37z"/>
<path d="M5340 4244 c-40 -64 -100 -219 -149 -386 -85 -292 -109 -486 -65
-544 33 -45 50 -51 74 -29 55 50 83 145 110 375 25 211 44 312 81 429 37 116
38 194 2 199 -18 3 -29 -7 -53 -44z"/>
<path d="M3990 2755 c-22 -27 -4 -45 44 -45 54 0 68 16 36 42 -27 22 -63 23
-80 3z"/>
<path d="M3146 2739 c-93 -9 -148 -32 -154 -62 -2 -10 12 -33 31 -52 31 -31
41 -35 89 -35 83 0 598 75 642 94 86 36 -8 55 -299 61 -121 2 -260 0 -309 -6z"/>
<path d="M5185 2424 c-31 -17 -55 -41 -55 -56 0 -14 66 -38 105 -38 52 0 105
25 105 49 0 54 -89 79 -155 45z"/>
<path d="M3998 2199 c-14 -6 -29 -17 -32 -25 -8 -20 29 -54 57 -54 27 0 67 26
67 44 0 30 -51 49 -92 35z"/>
<path d="M3205 2143 c-96 -11 -122 -33 -113 -94 8 -56 65 -58 368 -13 322 47
410 76 313 103 -35 10 -494 13 -568 4z"/>
<path d="M5153 1925 c-40 -17 -67 -57 -59 -89 13 -51 124 -61 172 -15 31 29
31 63 -1 94 -27 28 -64 31 -112 10z"/>
<path d="M4022 1688 c-35 -35 13 -81 65 -62 62 22 51 74 -16 74 -20 0 -42 -5
-49 -12z"/>
<path d="M3729 1645 c-11 -10 -216 -35 -384 -45 -187 -12 -247 -26 -253 -62
-2 -9 6 -26 17 -37 19 -19 33 -21 125 -21 250 0 670 114 595 161 -15 9 -92 12
-100 4z"/>
<path d="M5152 1360 c-40 -9 -88 -53 -94 -84 -9 -43 8 -66 47 -66 47 0 88 22
119 63 34 44 34 75 0 87 -28 11 -26 11 -72 0z"/>
<path d="M3994 1070 c-31 -12 -37 -37 -13 -61 20 -20 21 -20 52 -2 66 39 33
92 -39 63z"/>
<path d="M3335 1039 c-162 -14 -227 -42 -199 -86 23 -37 79 -46 209 -34 122
12 324 52 383 77 40 16 38 36 -4 45 -41 9 -270 8 -389 -2z"/>
<path d="M5019 805 c-14 -7 -31 -26 -38 -41 -17 -38 5 -59 63 -59 50 0 86 25
86 61 0 49 -56 69 -111 39z"/>
</g>
</svg>
